<mxfile host="app.diagrams.net" modified="2023-10-13T22:41:27.732Z" agent="Mozilla/5.0 (Windows NT 10.0; Win64; x64) AppleWebKit/537.36 (KHTML, like Gecko) Chrome/117.0.0.0 Safari/537.36" etag="FiRC8OvV31umiEyKUq4d" version="22.0.4" type="github">
  <diagram id="C5RBs43oDa-KdzZeNtuy" name="Page-1">
    <mxGraphModel dx="2074" dy="2279" grid="1" gridSize="10" guides="1" tooltips="1" connect="1" arrows="1" fold="1" page="1" pageScale="1" pageWidth="827" pageHeight="1169" math="0" shadow="0">
      <root>
        <mxCell id="WIyWlLk6GJQsqaUBKTNV-0" />
        <mxCell id="WIyWlLk6GJQsqaUBKTNV-1" parent="WIyWlLk6GJQsqaUBKTNV-0" />
        <mxCell id="3s5bF1Iiqew6tjPNggHU-4" style="edgeStyle=orthogonalEdgeStyle;rounded=0;orthogonalLoop=1;jettySize=auto;html=1;exitX=0.5;exitY=1;exitDx=0;exitDy=0;exitPerimeter=0;entryX=0.5;entryY=0;entryDx=0;entryDy=0;" edge="1" parent="WIyWlLk6GJQsqaUBKTNV-1" source="3s5bF1Iiqew6tjPNggHU-0" target="3s5bF1Iiqew6tjPNggHU-6">
          <mxGeometry relative="1" as="geometry">
            <mxPoint x="132" y="-707" as="targetPoint" />
          </mxGeometry>
        </mxCell>
        <mxCell id="3s5bF1Iiqew6tjPNggHU-0" value="Start" style="strokeWidth=2;html=1;shape=mxgraph.flowchart.start_1;whiteSpace=wrap;" vertex="1" parent="WIyWlLk6GJQsqaUBKTNV-1">
          <mxGeometry x="82" y="-807" width="100" height="60" as="geometry" />
        </mxCell>
        <mxCell id="3s5bF1Iiqew6tjPNggHU-6" value="sentence = user input" style="shape=parallelogram;html=1;strokeWidth=2;perimeter=parallelogramPerimeter;whiteSpace=wrap;rounded=1;arcSize=12;size=0.23;" vertex="1" parent="WIyWlLk6GJQsqaUBKTNV-1">
          <mxGeometry x="24.5" y="-697" width="215" height="60" as="geometry" />
        </mxCell>
        <mxCell id="3s5bF1Iiqew6tjPNggHU-11" style="edgeStyle=orthogonalEdgeStyle;rounded=0;orthogonalLoop=1;jettySize=auto;html=1;exitX=1;exitY=0.5;exitDx=0;exitDy=0;exitPerimeter=0;" edge="1" parent="WIyWlLk6GJQsqaUBKTNV-1" source="3s5bF1Iiqew6tjPNggHU-10">
          <mxGeometry relative="1" as="geometry">
            <mxPoint x="132" y="-727" as="targetPoint" />
            <Array as="points">
              <mxPoint x="372" y="-557" />
              <mxPoint x="372" y="-727" />
            </Array>
          </mxGeometry>
        </mxCell>
        <mxCell id="3s5bF1Iiqew6tjPNggHU-13" value="N" style="edgeLabel;html=1;align=center;verticalAlign=middle;resizable=0;points=[];" vertex="1" connectable="0" parent="3s5bF1Iiqew6tjPNggHU-11">
          <mxGeometry x="-0.8426" y="4" relative="1" as="geometry">
            <mxPoint x="20" y="-6" as="offset" />
          </mxGeometry>
        </mxCell>
        <mxCell id="3s5bF1Iiqew6tjPNggHU-16" style="edgeStyle=orthogonalEdgeStyle;rounded=0;orthogonalLoop=1;jettySize=auto;html=1;exitX=0.5;exitY=1;exitDx=0;exitDy=0;exitPerimeter=0;entryX=0.5;entryY=0;entryDx=0;entryDy=0;" edge="1" parent="WIyWlLk6GJQsqaUBKTNV-1" source="3s5bF1Iiqew6tjPNggHU-10" target="3s5bF1Iiqew6tjPNggHU-15">
          <mxGeometry relative="1" as="geometry" />
        </mxCell>
        <mxCell id="3s5bF1Iiqew6tjPNggHU-17" value="Y" style="edgeLabel;html=1;align=center;verticalAlign=middle;resizable=0;points=[];" vertex="1" connectable="0" parent="3s5bF1Iiqew6tjPNggHU-16">
          <mxGeometry x="0.2" y="-3" relative="1" as="geometry">
            <mxPoint x="-3" y="-5" as="offset" />
          </mxGeometry>
        </mxCell>
        <mxCell id="3s5bF1Iiqew6tjPNggHU-10" value="sentence &amp;gt; 5 words" style="strokeWidth=2;html=1;shape=mxgraph.flowchart.decision;whiteSpace=wrap;" vertex="1" parent="WIyWlLk6GJQsqaUBKTNV-1">
          <mxGeometry x="72" y="-607" width="100" height="100" as="geometry" />
        </mxCell>
        <mxCell id="3s5bF1Iiqew6tjPNggHU-12" style="edgeStyle=orthogonalEdgeStyle;rounded=0;orthogonalLoop=1;jettySize=auto;html=1;exitX=0.5;exitY=1;exitDx=0;exitDy=0;entryX=0.5;entryY=0;entryDx=0;entryDy=0;entryPerimeter=0;" edge="1" parent="WIyWlLk6GJQsqaUBKTNV-1" source="3s5bF1Iiqew6tjPNggHU-6" target="3s5bF1Iiqew6tjPNggHU-10">
          <mxGeometry relative="1" as="geometry" />
        </mxCell>
        <mxCell id="3s5bF1Iiqew6tjPNggHU-24" style="edgeStyle=orthogonalEdgeStyle;rounded=0;orthogonalLoop=1;jettySize=auto;html=1;exitX=0.5;exitY=1;exitDx=0;exitDy=0;entryX=0.5;entryY=0;entryDx=0;entryDy=0;" edge="1" parent="WIyWlLk6GJQsqaUBKTNV-1" source="3s5bF1Iiqew6tjPNggHU-15" target="3s5bF1Iiqew6tjPNggHU-18">
          <mxGeometry relative="1" as="geometry" />
        </mxCell>
        <mxCell id="3s5bF1Iiqew6tjPNggHU-15" value="website = user input&amp;nbsp;" style="shape=parallelogram;html=1;strokeWidth=2;perimeter=parallelogramPerimeter;whiteSpace=wrap;rounded=1;arcSize=12;size=0.23;" vertex="1" parent="WIyWlLk6GJQsqaUBKTNV-1">
          <mxGeometry x="14.5" y="-480" width="215" height="50" as="geometry" />
        </mxCell>
        <mxCell id="3s5bF1Iiqew6tjPNggHU-25" style="edgeStyle=orthogonalEdgeStyle;rounded=0;orthogonalLoop=1;jettySize=auto;html=1;exitX=0.5;exitY=1;exitDx=0;exitDy=0;entryX=0.5;entryY=0;entryDx=0;entryDy=0;" edge="1" parent="WIyWlLk6GJQsqaUBKTNV-1" source="3s5bF1Iiqew6tjPNggHU-18" target="3s5bF1Iiqew6tjPNggHU-21">
          <mxGeometry relative="1" as="geometry" />
        </mxCell>
        <mxCell id="3s5bF1Iiqew6tjPNggHU-29" style="edgeStyle=orthogonalEdgeStyle;rounded=0;orthogonalLoop=1;jettySize=auto;html=1;exitX=1;exitY=0.5;exitDx=0;exitDy=0;entryX=0;entryY=0.5;entryDx=0;entryDy=0;startArrow=classic;startFill=1;" edge="1" parent="WIyWlLk6GJQsqaUBKTNV-1" source="3s5bF1Iiqew6tjPNggHU-18" target="3s5bF1Iiqew6tjPNggHU-28">
          <mxGeometry relative="1" as="geometry">
            <mxPoint x="310" y="-460" as="targetPoint" />
          </mxGeometry>
        </mxCell>
        <mxCell id="3s5bF1Iiqew6tjPNggHU-18" value="char = 2nd last char of website&lt;br&gt;password = replaceWithNumbers(char)" style="rounded=1;whiteSpace=wrap;html=1;absoluteArcSize=1;arcSize=14;strokeWidth=2;" vertex="1" parent="WIyWlLk6GJQsqaUBKTNV-1">
          <mxGeometry x="30" y="-410" width="180" height="63" as="geometry" />
        </mxCell>
        <mxCell id="3s5bF1Iiqew6tjPNggHU-47" style="edgeStyle=orthogonalEdgeStyle;rounded=0;orthogonalLoop=1;jettySize=auto;html=1;exitX=0.5;exitY=1;exitDx=0;exitDy=0;entryX=0.5;entryY=0;entryDx=0;entryDy=0;" edge="1" parent="WIyWlLk6GJQsqaUBKTNV-1" source="3s5bF1Iiqew6tjPNggHU-20" target="3s5bF1Iiqew6tjPNggHU-43">
          <mxGeometry relative="1" as="geometry" />
        </mxCell>
        <mxCell id="3s5bF1Iiqew6tjPNggHU-20" value="char = first char of website&lt;br style=&quot;border-color: var(--border-color);&quot;&gt;password += replaceWithNumbers(char)" style="rounded=1;whiteSpace=wrap;html=1;absoluteArcSize=1;arcSize=14;strokeWidth=2;" vertex="1" parent="WIyWlLk6GJQsqaUBKTNV-1">
          <mxGeometry x="14.5" y="-60" width="178" height="50" as="geometry" />
        </mxCell>
        <mxCell id="3s5bF1Iiqew6tjPNggHU-49" style="edgeStyle=orthogonalEdgeStyle;rounded=0;orthogonalLoop=1;jettySize=auto;html=1;exitX=0.5;exitY=1;exitDx=0;exitDy=0;entryX=0.5;entryY=0;entryDx=0;entryDy=0;" edge="1" parent="WIyWlLk6GJQsqaUBKTNV-1" source="3s5bF1Iiqew6tjPNggHU-21" target="3s5bF1Iiqew6tjPNggHU-48">
          <mxGeometry relative="1" as="geometry" />
        </mxCell>
        <mxCell id="3s5bF1Iiqew6tjPNggHU-21" value="char = last char of website&lt;br style=&quot;border-color: var(--border-color);&quot;&gt;password += replaceWithNumbers(char)" style="rounded=1;whiteSpace=wrap;html=1;absoluteArcSize=1;arcSize=14;strokeWidth=2;" vertex="1" parent="WIyWlLk6GJQsqaUBKTNV-1">
          <mxGeometry x="30" y="-327" width="178" height="50" as="geometry" />
        </mxCell>
        <mxCell id="3s5bF1Iiqew6tjPNggHU-28" value="replaceWithNumbers(char)" style="verticalLabelPosition=middle;verticalAlign=middle;html=1;shape=process;whiteSpace=wrap;rounded=1;size=0.14;arcSize=6;labelPosition=center;align=center;" vertex="1" parent="WIyWlLk6GJQsqaUBKTNV-1">
          <mxGeometry x="360" y="-500" width="230" height="60" as="geometry" />
        </mxCell>
        <mxCell id="3s5bF1Iiqew6tjPNggHU-38" style="edgeStyle=orthogonalEdgeStyle;rounded=0;orthogonalLoop=1;jettySize=auto;html=1;exitX=0.5;exitY=1;exitDx=0;exitDy=0;exitPerimeter=0;" edge="1" parent="WIyWlLk6GJQsqaUBKTNV-1" source="3s5bF1Iiqew6tjPNggHU-30" target="3s5bF1Iiqew6tjPNggHU-36">
          <mxGeometry relative="1" as="geometry" />
        </mxCell>
        <mxCell id="3s5bF1Iiqew6tjPNggHU-39" value="Y" style="edgeLabel;html=1;align=center;verticalAlign=middle;resizable=0;points=[];" vertex="1" connectable="0" parent="3s5bF1Iiqew6tjPNggHU-38">
          <mxGeometry x="-0.05" y="3" relative="1" as="geometry">
            <mxPoint as="offset" />
          </mxGeometry>
        </mxCell>
        <mxCell id="3s5bF1Iiqew6tjPNggHU-51" style="edgeStyle=orthogonalEdgeStyle;rounded=0;orthogonalLoop=1;jettySize=auto;html=1;exitX=1;exitY=0.5;exitDx=0;exitDy=0;exitPerimeter=0;entryX=1;entryY=0.5;entryDx=0;entryDy=0;entryPerimeter=0;" edge="1" parent="WIyWlLk6GJQsqaUBKTNV-1" source="3s5bF1Iiqew6tjPNggHU-30" target="3s5bF1Iiqew6tjPNggHU-40">
          <mxGeometry relative="1" as="geometry">
            <mxPoint x="480" y="-200" as="targetPoint" />
            <Array as="points">
              <mxPoint x="680" y="-370" />
              <mxPoint x="680" y="-165" />
            </Array>
          </mxGeometry>
        </mxCell>
        <mxCell id="3s5bF1Iiqew6tjPNggHU-52" value="N" style="edgeLabel;html=1;align=center;verticalAlign=middle;resizable=0;points=[];" vertex="1" connectable="0" parent="3s5bF1Iiqew6tjPNggHU-51">
          <mxGeometry x="-0.7933" y="1" relative="1" as="geometry">
            <mxPoint as="offset" />
          </mxGeometry>
        </mxCell>
        <mxCell id="3s5bF1Iiqew6tjPNggHU-30" value="char == &quot;l&quot; or &quot;i&quot; or&quot;g&quot; or &quot;o&quot; or &quot;s&quot;" style="strokeWidth=2;html=1;shape=mxgraph.flowchart.decision;whiteSpace=wrap;" vertex="1" parent="WIyWlLk6GJQsqaUBKTNV-1">
          <mxGeometry x="380" y="-420" width="210" height="100" as="geometry" />
        </mxCell>
        <mxCell id="3s5bF1Iiqew6tjPNggHU-35" style="edgeStyle=orthogonalEdgeStyle;rounded=0;orthogonalLoop=1;jettySize=auto;html=1;exitX=0.5;exitY=1;exitDx=0;exitDy=0;entryX=0.5;entryY=0;entryDx=0;entryDy=0;entryPerimeter=0;" edge="1" parent="WIyWlLk6GJQsqaUBKTNV-1" source="3s5bF1Iiqew6tjPNggHU-28" target="3s5bF1Iiqew6tjPNggHU-30">
          <mxGeometry relative="1" as="geometry" />
        </mxCell>
        <mxCell id="3s5bF1Iiqew6tjPNggHU-36" value="Replace char &quot;l&quot; = &quot;1&quot;, &lt;br&gt;&quot;i&quot; = &quot;!&quot;; &quot;g&quot; = &quot;9&quot;; &quot;o&quot; = &quot;0&quot;; &quot;s&quot; = &quot;5&quot;" style="rounded=1;whiteSpace=wrap;html=1;absoluteArcSize=1;arcSize=14;strokeWidth=2;" vertex="1" parent="WIyWlLk6GJQsqaUBKTNV-1">
          <mxGeometry x="410" y="-270" width="150" height="50" as="geometry" />
        </mxCell>
        <mxCell id="3s5bF1Iiqew6tjPNggHU-40" value="return char" style="strokeWidth=2;html=1;shape=mxgraph.flowchart.terminator;whiteSpace=wrap;" vertex="1" parent="WIyWlLk6GJQsqaUBKTNV-1">
          <mxGeometry x="430" y="-190" width="100" height="50" as="geometry" />
        </mxCell>
        <mxCell id="3s5bF1Iiqew6tjPNggHU-41" value="End&lt;br&gt;" style="strokeWidth=2;html=1;shape=mxgraph.flowchart.terminator;whiteSpace=wrap;" vertex="1" parent="WIyWlLk6GJQsqaUBKTNV-1">
          <mxGeometry x="54" y="210" width="93" height="50" as="geometry" />
        </mxCell>
        <mxCell id="3s5bF1Iiqew6tjPNggHU-42" style="edgeStyle=orthogonalEdgeStyle;rounded=0;orthogonalLoop=1;jettySize=auto;html=1;exitX=0.5;exitY=1;exitDx=0;exitDy=0;entryX=0.44;entryY=0;entryDx=0;entryDy=0;entryPerimeter=0;" edge="1" parent="WIyWlLk6GJQsqaUBKTNV-1" source="3s5bF1Iiqew6tjPNggHU-36" target="3s5bF1Iiqew6tjPNggHU-40">
          <mxGeometry relative="1" as="geometry" />
        </mxCell>
        <mxCell id="3s5bF1Iiqew6tjPNggHU-43" value="char = second char of website&lt;br style=&quot;border-color: var(--border-color);&quot;&gt;password&amp;nbsp; += replaceWithNumbers(char)" style="rounded=1;whiteSpace=wrap;html=1;absoluteArcSize=1;arcSize=14;strokeWidth=2;" vertex="1" parent="WIyWlLk6GJQsqaUBKTNV-1">
          <mxGeometry x="14.5" y="30" width="178" height="50" as="geometry" />
        </mxCell>
        <mxCell id="3s5bF1Iiqew6tjPNggHU-45" style="edgeStyle=orthogonalEdgeStyle;rounded=0;orthogonalLoop=1;jettySize=auto;html=1;exitX=0.5;exitY=1;exitDx=0;exitDy=0;exitPerimeter=0;" edge="1" parent="WIyWlLk6GJQsqaUBKTNV-1" source="3s5bF1Iiqew6tjPNggHU-44" target="3s5bF1Iiqew6tjPNggHU-41">
          <mxGeometry relative="1" as="geometry" />
        </mxCell>
        <mxCell id="3s5bF1Iiqew6tjPNggHU-44" value="Display password" style="strokeWidth=2;html=1;shape=mxgraph.flowchart.display;whiteSpace=wrap;" vertex="1" parent="WIyWlLk6GJQsqaUBKTNV-1">
          <mxGeometry x="51" y="110" width="100" height="60" as="geometry" />
        </mxCell>
        <mxCell id="3s5bF1Iiqew6tjPNggHU-46" style="edgeStyle=orthogonalEdgeStyle;rounded=0;orthogonalLoop=1;jettySize=auto;html=1;exitX=0.5;exitY=1;exitDx=0;exitDy=0;entryX=0.5;entryY=0;entryDx=0;entryDy=0;entryPerimeter=0;" edge="1" parent="WIyWlLk6GJQsqaUBKTNV-1" source="3s5bF1Iiqew6tjPNggHU-43" target="3s5bF1Iiqew6tjPNggHU-44">
          <mxGeometry relative="1" as="geometry" />
        </mxCell>
        <mxCell id="3s5bF1Iiqew6tjPNggHU-53" style="edgeStyle=orthogonalEdgeStyle;rounded=0;orthogonalLoop=1;jettySize=auto;html=1;exitX=0.5;exitY=1;exitDx=0;exitDy=0;entryX=0.5;entryY=0;entryDx=0;entryDy=0;" edge="1" parent="WIyWlLk6GJQsqaUBKTNV-1" source="3s5bF1Iiqew6tjPNggHU-48" target="3s5bF1Iiqew6tjPNggHU-50">
          <mxGeometry relative="1" as="geometry" />
        </mxCell>
        <mxCell id="3s5bF1Iiqew6tjPNggHU-48" value="password +=&lt;br&gt;lenght (website)" style="rounded=1;whiteSpace=wrap;html=1;absoluteArcSize=1;arcSize=14;strokeWidth=2;" vertex="1" parent="WIyWlLk6GJQsqaUBKTNV-1">
          <mxGeometry x="36.25" y="-250" width="165.5" height="50" as="geometry" />
        </mxCell>
        <mxCell id="3s5bF1Iiqew6tjPNggHU-54" style="edgeStyle=orthogonalEdgeStyle;rounded=0;orthogonalLoop=1;jettySize=auto;html=1;exitX=0.5;exitY=1;exitDx=0;exitDy=0;entryX=0.5;entryY=0;entryDx=0;entryDy=0;" edge="1" parent="WIyWlLk6GJQsqaUBKTNV-1" source="3s5bF1Iiqew6tjPNggHU-50" target="3s5bF1Iiqew6tjPNggHU-20">
          <mxGeometry relative="1" as="geometry" />
        </mxCell>
        <mxCell id="3s5bF1Iiqew6tjPNggHU-50" value="password +=&lt;br&gt;encodeSentence (sentence)" style="rounded=1;whiteSpace=wrap;html=1;absoluteArcSize=1;arcSize=14;strokeWidth=2;" vertex="1" parent="WIyWlLk6GJQsqaUBKTNV-1">
          <mxGeometry x="30" y="-170" width="165.5" height="50" as="geometry" />
        </mxCell>
        <mxCell id="3s5bF1Iiqew6tjPNggHU-55" style="edgeStyle=orthogonalEdgeStyle;rounded=0;orthogonalLoop=1;jettySize=auto;html=1;exitX=1;exitY=0.5;exitDx=0;exitDy=0;startArrow=classic;startFill=1;entryX=0;entryY=0.5;entryDx=0;entryDy=0;" edge="1" parent="WIyWlLk6GJQsqaUBKTNV-1" target="3s5bF1Iiqew6tjPNggHU-56">
          <mxGeometry relative="1" as="geometry">
            <mxPoint x="360" y="-80" as="targetPoint" />
            <mxPoint x="195.5" y="-140.5" as="sourcePoint" />
          </mxGeometry>
        </mxCell>
        <mxCell id="3s5bF1Iiqew6tjPNggHU-64" style="edgeStyle=orthogonalEdgeStyle;rounded=0;orthogonalLoop=1;jettySize=auto;html=1;exitX=0.5;exitY=1;exitDx=0;exitDy=0;entryX=0.5;entryY=0;entryDx=0;entryDy=0;" edge="1" parent="WIyWlLk6GJQsqaUBKTNV-1" source="3s5bF1Iiqew6tjPNggHU-56" target="3s5bF1Iiqew6tjPNggHU-58">
          <mxGeometry relative="1" as="geometry" />
        </mxCell>
        <mxCell id="3s5bF1Iiqew6tjPNggHU-56" value="encodeSentence(sentence)" style="verticalLabelPosition=middle;verticalAlign=middle;html=1;shape=process;whiteSpace=wrap;rounded=1;size=0.14;arcSize=6;labelPosition=center;align=center;" vertex="1" parent="WIyWlLk6GJQsqaUBKTNV-1">
          <mxGeometry x="370" y="-120" width="230" height="60" as="geometry" />
        </mxCell>
        <mxCell id="3s5bF1Iiqew6tjPNggHU-58" value="retWord = &quot; &quot;&lt;br&gt;curWord = &quot; &quot;" style="rounded=1;whiteSpace=wrap;html=1;absoluteArcSize=1;arcSize=14;strokeWidth=2;" vertex="1" parent="WIyWlLk6GJQsqaUBKTNV-1">
          <mxGeometry x="402.25" y="-30" width="165.5" height="50" as="geometry" />
        </mxCell>
        <mxCell id="3s5bF1Iiqew6tjPNggHU-59" value="return retWord" style="strokeWidth=2;html=1;shape=mxgraph.flowchart.terminator;whiteSpace=wrap;" vertex="1" parent="WIyWlLk6GJQsqaUBKTNV-1">
          <mxGeometry x="321" y="350" width="100" height="50" as="geometry" />
        </mxCell>
        <mxCell id="3s5bF1Iiqew6tjPNggHU-60" value="retWord += word count of sentence" style="rounded=1;whiteSpace=wrap;html=1;absoluteArcSize=1;arcSize=14;strokeWidth=2;" vertex="1" parent="WIyWlLk6GJQsqaUBKTNV-1">
          <mxGeometry x="288.25" y="260" width="165.5" height="50" as="geometry" />
        </mxCell>
        <mxCell id="3s5bF1Iiqew6tjPNggHU-62" style="edgeStyle=orthogonalEdgeStyle;rounded=0;orthogonalLoop=1;jettySize=auto;html=1;exitX=0;exitY=0.5;exitDx=0;exitDy=0;exitPerimeter=0;entryX=0.5;entryY=0;entryDx=0;entryDy=0;" edge="1" parent="WIyWlLk6GJQsqaUBKTNV-1" source="3s5bF1Iiqew6tjPNggHU-61" target="3s5bF1Iiqew6tjPNggHU-60">
          <mxGeometry relative="1" as="geometry" />
        </mxCell>
        <mxCell id="3s5bF1Iiqew6tjPNggHU-63" value="Y" style="edgeLabel;html=1;align=center;verticalAlign=middle;resizable=0;points=[];" vertex="1" connectable="0" parent="3s5bF1Iiqew6tjPNggHU-62">
          <mxGeometry x="-0.0429" y="-1" relative="1" as="geometry">
            <mxPoint as="offset" />
          </mxGeometry>
        </mxCell>
        <mxCell id="3s5bF1Iiqew6tjPNggHU-67" style="edgeStyle=orthogonalEdgeStyle;rounded=0;orthogonalLoop=1;jettySize=auto;html=1;exitX=1;exitY=0.5;exitDx=0;exitDy=0;exitPerimeter=0;" edge="1" parent="WIyWlLk6GJQsqaUBKTNV-1" source="3s5bF1Iiqew6tjPNggHU-61" target="3s5bF1Iiqew6tjPNggHU-66">
          <mxGeometry relative="1" as="geometry" />
        </mxCell>
        <mxCell id="3s5bF1Iiqew6tjPNggHU-68" value="N" style="edgeLabel;html=1;align=center;verticalAlign=middle;resizable=0;points=[];" vertex="1" connectable="0" parent="3s5bF1Iiqew6tjPNggHU-67">
          <mxGeometry x="-0.1786" y="-1" relative="1" as="geometry">
            <mxPoint as="offset" />
          </mxGeometry>
        </mxCell>
        <mxCell id="3s5bF1Iiqew6tjPNggHU-61" value="end of sentence" style="strokeWidth=2;html=1;shape=mxgraph.flowchart.decision;whiteSpace=wrap;" vertex="1" parent="WIyWlLk6GJQsqaUBKTNV-1">
          <mxGeometry x="391" y="50" width="188" height="100" as="geometry" />
        </mxCell>
        <mxCell id="3s5bF1Iiqew6tjPNggHU-65" style="edgeStyle=orthogonalEdgeStyle;rounded=0;orthogonalLoop=1;jettySize=auto;html=1;exitX=0.5;exitY=1;exitDx=0;exitDy=0;entryX=0.5;entryY=0;entryDx=0;entryDy=0;entryPerimeter=0;" edge="1" parent="WIyWlLk6GJQsqaUBKTNV-1" source="3s5bF1Iiqew6tjPNggHU-58" target="3s5bF1Iiqew6tjPNggHU-61">
          <mxGeometry relative="1" as="geometry" />
        </mxCell>
        <mxCell id="3s5bF1Iiqew6tjPNggHU-66" value="nextChar = get next char of sentence" style="rounded=1;whiteSpace=wrap;html=1;absoluteArcSize=1;arcSize=14;strokeWidth=2;" vertex="1" parent="WIyWlLk6GJQsqaUBKTNV-1">
          <mxGeometry x="640" y="75" width="210" height="50" as="geometry" />
        </mxCell>
        <mxCell id="3s5bF1Iiqew6tjPNggHU-69" style="edgeStyle=orthogonalEdgeStyle;rounded=0;orthogonalLoop=1;jettySize=auto;html=1;exitX=0.5;exitY=1;exitDx=0;exitDy=0;entryX=0.5;entryY=0;entryDx=0;entryDy=0;entryPerimeter=0;" edge="1" parent="WIyWlLk6GJQsqaUBKTNV-1" source="3s5bF1Iiqew6tjPNggHU-60" target="3s5bF1Iiqew6tjPNggHU-59">
          <mxGeometry relative="1" as="geometry" />
        </mxCell>
        <mxCell id="3s5bF1Iiqew6tjPNggHU-72" style="edgeStyle=orthogonalEdgeStyle;rounded=0;orthogonalLoop=1;jettySize=auto;html=1;exitX=1;exitY=0.5;exitDx=0;exitDy=0;exitPerimeter=0;" edge="1" parent="WIyWlLk6GJQsqaUBKTNV-1" source="3s5bF1Iiqew6tjPNggHU-70" target="3s5bF1Iiqew6tjPNggHU-71">
          <mxGeometry relative="1" as="geometry" />
        </mxCell>
        <mxCell id="3s5bF1Iiqew6tjPNggHU-74" value="N" style="edgeLabel;html=1;align=center;verticalAlign=middle;resizable=0;points=[];" vertex="1" connectable="0" parent="3s5bF1Iiqew6tjPNggHU-72">
          <mxGeometry x="-0.2381" y="-4" relative="1" as="geometry">
            <mxPoint as="offset" />
          </mxGeometry>
        </mxCell>
        <mxCell id="3s5bF1Iiqew6tjPNggHU-70" value="character == &quot; &quot;" style="strokeWidth=2;html=1;shape=mxgraph.flowchart.decision;whiteSpace=wrap;" vertex="1" parent="WIyWlLk6GJQsqaUBKTNV-1">
          <mxGeometry x="669" y="160" width="158" height="70" as="geometry" />
        </mxCell>
        <mxCell id="3s5bF1Iiqew6tjPNggHU-73" style="edgeStyle=orthogonalEdgeStyle;rounded=0;orthogonalLoop=1;jettySize=auto;html=1;exitX=0.5;exitY=0;exitDx=0;exitDy=0;entryX=1;entryY=0.5;entryDx=0;entryDy=0;" edge="1" parent="WIyWlLk6GJQsqaUBKTNV-1" source="3s5bF1Iiqew6tjPNggHU-71" target="3s5bF1Iiqew6tjPNggHU-66">
          <mxGeometry relative="1" as="geometry" />
        </mxCell>
        <mxCell id="3s5bF1Iiqew6tjPNggHU-71" value="curWord&amp;nbsp; += nextChar" style="rounded=1;whiteSpace=wrap;html=1;absoluteArcSize=1;arcSize=14;strokeWidth=2;" vertex="1" parent="WIyWlLk6GJQsqaUBKTNV-1">
          <mxGeometry x="890" y="170" width="160" height="50" as="geometry" />
        </mxCell>
        <mxCell id="3s5bF1Iiqew6tjPNggHU-75" value="firstChar = first letter of nextChar&amp;nbsp;&lt;br&gt;lastChar = last letter of nextChar&amp;nbsp;" style="rounded=1;whiteSpace=wrap;html=1;absoluteArcSize=1;arcSize=14;strokeWidth=2;" vertex="1" parent="WIyWlLk6GJQsqaUBKTNV-1">
          <mxGeometry x="640" y="260" width="230" height="60" as="geometry" />
        </mxCell>
        <mxCell id="3s5bF1Iiqew6tjPNggHU-86" style="edgeStyle=orthogonalEdgeStyle;rounded=0;orthogonalLoop=1;jettySize=auto;html=1;exitX=1;exitY=0.5;exitDx=0;exitDy=0;exitPerimeter=0;entryX=0;entryY=0.5;entryDx=0;entryDy=0;" edge="1" parent="WIyWlLk6GJQsqaUBKTNV-1" source="3s5bF1Iiqew6tjPNggHU-76" target="3s5bF1Iiqew6tjPNggHU-78">
          <mxGeometry relative="1" as="geometry" />
        </mxCell>
        <mxCell id="3s5bF1Iiqew6tjPNggHU-87" value="Y" style="edgeLabel;html=1;align=center;verticalAlign=middle;resizable=0;points=[];" vertex="1" connectable="0" parent="3s5bF1Iiqew6tjPNggHU-86">
          <mxGeometry x="0.2195" y="-2" relative="1" as="geometry">
            <mxPoint as="offset" />
          </mxGeometry>
        </mxCell>
        <mxCell id="3s5bF1Iiqew6tjPNggHU-76" value="len(curWord) &amp;lt; 5" style="strokeWidth=2;html=1;shape=mxgraph.flowchart.decision;whiteSpace=wrap;" vertex="1" parent="WIyWlLk6GJQsqaUBKTNV-1">
          <mxGeometry x="681" y="350" width="158" height="70" as="geometry" />
        </mxCell>
        <mxCell id="3s5bF1Iiqew6tjPNggHU-89" style="edgeStyle=orthogonalEdgeStyle;rounded=0;orthogonalLoop=1;jettySize=auto;html=1;exitX=1;exitY=0.5;exitDx=0;exitDy=0;exitPerimeter=0;entryX=0;entryY=0.5;entryDx=0;entryDy=0;" edge="1" parent="WIyWlLk6GJQsqaUBKTNV-1" source="3s5bF1Iiqew6tjPNggHU-77" target="3s5bF1Iiqew6tjPNggHU-79">
          <mxGeometry relative="1" as="geometry" />
        </mxCell>
        <mxCell id="3s5bF1Iiqew6tjPNggHU-90" value="Y" style="edgeLabel;html=1;align=center;verticalAlign=middle;resizable=0;points=[];" vertex="1" connectable="0" parent="3s5bF1Iiqew6tjPNggHU-89">
          <mxGeometry x="-0.0244" y="1" relative="1" as="geometry">
            <mxPoint as="offset" />
          </mxGeometry>
        </mxCell>
        <mxCell id="3s5bF1Iiqew6tjPNggHU-77" value="len(curWord) &amp;lt; 11" style="strokeWidth=2;html=1;shape=mxgraph.flowchart.decision;whiteSpace=wrap;" vertex="1" parent="WIyWlLk6GJQsqaUBKTNV-1">
          <mxGeometry x="681" y="450" width="158" height="70" as="geometry" />
        </mxCell>
        <mxCell id="3s5bF1Iiqew6tjPNggHU-96" style="edgeStyle=orthogonalEdgeStyle;rounded=0;orthogonalLoop=1;jettySize=auto;html=1;exitX=1;exitY=0.5;exitDx=0;exitDy=0;entryX=1;entryY=0.5;entryDx=0;entryDy=0;" edge="1" parent="WIyWlLk6GJQsqaUBKTNV-1" source="3s5bF1Iiqew6tjPNggHU-78" target="3s5bF1Iiqew6tjPNggHU-93">
          <mxGeometry relative="1" as="geometry" />
        </mxCell>
        <mxCell id="3s5bF1Iiqew6tjPNggHU-78" value="firstChar = firstChar.uppercase&lt;br&gt;lastChar = lastChar&amp;nbsp;.uppercase" style="rounded=1;whiteSpace=wrap;html=1;absoluteArcSize=1;arcSize=14;strokeWidth=2;" vertex="1" parent="WIyWlLk6GJQsqaUBKTNV-1">
          <mxGeometry x="880" y="360" width="180" height="40" as="geometry" />
        </mxCell>
        <mxCell id="3s5bF1Iiqew6tjPNggHU-95" style="edgeStyle=orthogonalEdgeStyle;rounded=0;orthogonalLoop=1;jettySize=auto;html=1;exitX=0.5;exitY=1;exitDx=0;exitDy=0;entryX=1;entryY=0.5;entryDx=0;entryDy=0;" edge="1" parent="WIyWlLk6GJQsqaUBKTNV-1" source="3s5bF1Iiqew6tjPNggHU-79" target="3s5bF1Iiqew6tjPNggHU-93">
          <mxGeometry relative="1" as="geometry" />
        </mxCell>
        <mxCell id="3s5bF1Iiqew6tjPNggHU-79" value="firstChar = firstChar.uppercase&lt;br&gt;" style="rounded=1;whiteSpace=wrap;html=1;absoluteArcSize=1;arcSize=14;strokeWidth=2;" vertex="1" parent="WIyWlLk6GJQsqaUBKTNV-1">
          <mxGeometry x="880" y="470" width="180" height="30" as="geometry" />
        </mxCell>
        <mxCell id="3s5bF1Iiqew6tjPNggHU-94" style="edgeStyle=orthogonalEdgeStyle;rounded=0;orthogonalLoop=1;jettySize=auto;html=1;exitX=0.5;exitY=1;exitDx=0;exitDy=0;entryX=0.5;entryY=0;entryDx=0;entryDy=0;" edge="1" parent="WIyWlLk6GJQsqaUBKTNV-1" source="3s5bF1Iiqew6tjPNggHU-80" target="3s5bF1Iiqew6tjPNggHU-93">
          <mxGeometry relative="1" as="geometry" />
        </mxCell>
        <mxCell id="3s5bF1Iiqew6tjPNggHU-80" value="lastChar = lastChar&amp;nbsp;.uppercase" style="rounded=1;whiteSpace=wrap;html=1;absoluteArcSize=1;arcSize=14;strokeWidth=2;" vertex="1" parent="WIyWlLk6GJQsqaUBKTNV-1">
          <mxGeometry x="660" y="550" width="210" height="30" as="geometry" />
        </mxCell>
        <mxCell id="3s5bF1Iiqew6tjPNggHU-81" style="edgeStyle=orthogonalEdgeStyle;rounded=0;orthogonalLoop=1;jettySize=auto;html=1;exitX=0.5;exitY=1;exitDx=0;exitDy=0;entryX=0.5;entryY=0;entryDx=0;entryDy=0;entryPerimeter=0;" edge="1" parent="WIyWlLk6GJQsqaUBKTNV-1" source="3s5bF1Iiqew6tjPNggHU-66" target="3s5bF1Iiqew6tjPNggHU-70">
          <mxGeometry relative="1" as="geometry" />
        </mxCell>
        <mxCell id="3s5bF1Iiqew6tjPNggHU-82" style="edgeStyle=orthogonalEdgeStyle;rounded=0;orthogonalLoop=1;jettySize=auto;html=1;exitX=0.5;exitY=1;exitDx=0;exitDy=0;exitPerimeter=0;entryX=0.47;entryY=0.017;entryDx=0;entryDy=0;entryPerimeter=0;" edge="1" parent="WIyWlLk6GJQsqaUBKTNV-1" source="3s5bF1Iiqew6tjPNggHU-70" target="3s5bF1Iiqew6tjPNggHU-75">
          <mxGeometry relative="1" as="geometry" />
        </mxCell>
        <mxCell id="3s5bF1Iiqew6tjPNggHU-83" value="Y" style="edgeLabel;html=1;align=center;verticalAlign=middle;resizable=0;points=[];" vertex="1" connectable="0" parent="3s5bF1Iiqew6tjPNggHU-82">
          <mxGeometry x="0.1609" y="2" relative="1" as="geometry">
            <mxPoint as="offset" />
          </mxGeometry>
        </mxCell>
        <mxCell id="3s5bF1Iiqew6tjPNggHU-84" style="edgeStyle=orthogonalEdgeStyle;rounded=0;orthogonalLoop=1;jettySize=auto;html=1;exitX=0.5;exitY=1;exitDx=0;exitDy=0;entryX=0.5;entryY=0;entryDx=0;entryDy=0;entryPerimeter=0;" edge="1" parent="WIyWlLk6GJQsqaUBKTNV-1" source="3s5bF1Iiqew6tjPNggHU-75" target="3s5bF1Iiqew6tjPNggHU-76">
          <mxGeometry relative="1" as="geometry" />
        </mxCell>
        <mxCell id="3s5bF1Iiqew6tjPNggHU-85" style="edgeStyle=orthogonalEdgeStyle;rounded=0;orthogonalLoop=1;jettySize=auto;html=1;exitX=0.5;exitY=1;exitDx=0;exitDy=0;exitPerimeter=0;entryX=0.5;entryY=0;entryDx=0;entryDy=0;entryPerimeter=0;" edge="1" parent="WIyWlLk6GJQsqaUBKTNV-1" source="3s5bF1Iiqew6tjPNggHU-76" target="3s5bF1Iiqew6tjPNggHU-77">
          <mxGeometry relative="1" as="geometry" />
        </mxCell>
        <mxCell id="3s5bF1Iiqew6tjPNggHU-88" value="N" style="edgeLabel;html=1;align=center;verticalAlign=middle;resizable=0;points=[];" vertex="1" connectable="0" parent="3s5bF1Iiqew6tjPNggHU-85">
          <mxGeometry x="-0.0667" y="1" relative="1" as="geometry">
            <mxPoint as="offset" />
          </mxGeometry>
        </mxCell>
        <mxCell id="3s5bF1Iiqew6tjPNggHU-91" style="edgeStyle=orthogonalEdgeStyle;rounded=0;orthogonalLoop=1;jettySize=auto;html=1;exitX=0.5;exitY=1;exitDx=0;exitDy=0;exitPerimeter=0;entryX=0.471;entryY=0;entryDx=0;entryDy=0;entryPerimeter=0;" edge="1" parent="WIyWlLk6GJQsqaUBKTNV-1" source="3s5bF1Iiqew6tjPNggHU-77" target="3s5bF1Iiqew6tjPNggHU-80">
          <mxGeometry relative="1" as="geometry" />
        </mxCell>
        <mxCell id="3s5bF1Iiqew6tjPNggHU-92" value="N" style="edgeLabel;html=1;align=center;verticalAlign=middle;resizable=0;points=[];" vertex="1" connectable="0" parent="3s5bF1Iiqew6tjPNggHU-91">
          <mxGeometry x="-0.0289" y="1" relative="1" as="geometry">
            <mxPoint as="offset" />
          </mxGeometry>
        </mxCell>
        <mxCell id="3s5bF1Iiqew6tjPNggHU-97" style="edgeStyle=orthogonalEdgeStyle;rounded=0;orthogonalLoop=1;jettySize=auto;html=1;exitX=0.5;exitY=1;exitDx=0;exitDy=0;" edge="1" parent="WIyWlLk6GJQsqaUBKTNV-1" source="3s5bF1Iiqew6tjPNggHU-93" target="3s5bF1Iiqew6tjPNggHU-61">
          <mxGeometry relative="1" as="geometry" />
        </mxCell>
        <mxCell id="3s5bF1Iiqew6tjPNggHU-93" value="retWord += firstChar + lastChar" style="rounded=1;whiteSpace=wrap;html=1;absoluteArcSize=1;arcSize=14;strokeWidth=2;" vertex="1" parent="WIyWlLk6GJQsqaUBKTNV-1">
          <mxGeometry x="660" y="620" width="210" height="40" as="geometry" />
        </mxCell>
      </root>
    </mxGraphModel>
  </diagram>
</mxfile>
